<?xml version="1.0" encoding="UTF-8"?> <svg xmlns="http://www.w3.org/2000/svg" id="Layer_1" data-name="Layer 1" viewBox="0 0 96 96"><path d="M42,86H2a2,2,0,0,1-2-2V52a2,2,0,0,1,2-2H34v4H4V82H40V76h4v8A2,2,0,0,1,42,86Z"></path><path d="M26,96H18a2,2,0,0,1-2-2V84a2,2,0,0,1,2-2h8a2,2,0,0,1,2,2V94A2,2,0,0,1,26,96Zm-6-4h4V86H20Z"></path><rect x="12" y="92" width="20" height="4"></rect><path d="M58,78H34a2,2,0,0,1-2-2V40a2,2,0,0,1,2-2H58a2,2,0,0,1,2,2V76A2,2,0,0,1,58,78ZM36,74H56V42H36Z"></path><path d="M70,78a2.07,2.07,0,0,1-.77-.15A2,2,0,0,1,68,76V68H60V64H70a2,2,0,0,1,2,2v5.17l6.59-6.58A2,2,0,0,1,80,64h6a6,6,0,0,0,6-6V10a6,6,0,0,0-6-6H18a6,6,0,0,0-6,6V54H8V10A10,10,0,0,1,18,0H86A10,10,0,0,1,96,10V58A10,10,0,0,1,86,68H80.83l-9.42,9.41A2,2,0,0,1,70,78Z"></path><rect x="2" y="74" width="40" height="4"></rect><rect x="34" y="66" width="24" height="4"></rect><rect x="34" y="46" width="24" height="4"></rect><path d="M86,32H18a2,2,0,0,1-2-2V14a2,2,0,0,1,2-2H86a2,2,0,0,1,2,2V30A2,2,0,0,1,86,32ZM20,28H84V16H20Z"></path><rect x="24" y="20" width="12" height="4"></rect><rect x="40" y="20" width="40" height="4"></rect><rect x="66" y="36" width="22" height="4"></rect><rect x="66" y="44" width="22" height="4"></rect><rect x="66" y="52" width="16" height="4"></rect></svg> 