<?xml version="1.0" encoding="UTF-8"?> <svg xmlns="http://www.w3.org/2000/svg" id="Layer_1" data-name="Layer 1" viewBox="0 0 96 96"><path d="M90,96H6a6,6,0,0,1-6-6V6A6,6,0,0,1,6,0H90a6,6,0,0,1,6,6V90A6,6,0,0,1,90,96ZM6,4A2,2,0,0,0,4,6V90a2,2,0,0,0,2,2H90a2,2,0,0,0,2-2V6a2,2,0,0,0-2-2Z"></path><path d="M94,28H26.71a2,2,0,0,1-1.42-.59L19.88,22H9.54L4.12,27.41,1.29,24.59l6-6A2,2,0,0,1,8.71,18h12a2,2,0,0,1,1.41.59L27.54,24H94Z"></path><rect x="76" y="8" width="4" height="4"></rect><rect x="84" y="8" width="4" height="4"></rect><rect x="8" y="8" width="64" height="4"></rect><path d="M86,52H50a2,2,0,0,1-2-2V34a2,2,0,0,1,2-2H86a2,2,0,0,1,2,2V50A2,2,0,0,1,86,52ZM52,48H84V36H52Z"></path><path d="M86,88H50a2,2,0,0,1-2-2V58a2,2,0,0,1,2-2H86a2,2,0,0,1,2,2V86A2,2,0,0,1,86,88ZM52,84H84V60H52Z"></path><rect x="12" y="40" width="28" height="4"></rect><rect x="12" y="72" width="28" height="4"></rect><rect x="66" y="22.3" width="4" height="39.4" transform="translate(2 87.08) rotate(-66.04)"></rect><rect x="66" y="49.2" width="4" height="45.61" transform="translate(-30.58 81.47) rotate(-52.13)"></rect><rect x="45.2" y="70" width="45.61" height="4" transform="translate(-29.88 56.93) rotate(-37.88)"></rect><rect x="48.3" y="40" width="39.4" height="4" transform="translate(-11.2 31.25) rotate(-23.97)"></rect></svg> 