<?xml version="1.0" encoding="UTF-8"?> <svg xmlns="http://www.w3.org/2000/svg" id="Layer_1" data-name="Layer 1" viewBox="0 0 96 96"><path d="M93.87,80h-92a2,2,0,0,1-2-2V16a2,2,0,0,1,2-2h56v4h-54V76h88V18h-6V14h8a2,2,0,0,1,2,2V78A2,2,0,0,1,93.87,80Z"></path><path d="M67.87,96h-40a2,2,0,0,1-2-2V90a6,6,0,0,1,6-6h32a6,6,0,0,1,6,6v4A2,2,0,0,1,67.87,96Zm-38-4h36V90a2,2,0,0,0-2-2h-32a2,2,0,0,0-2,2Z"></path><rect x="1.87" y="66" width="92" height="4"></rect><path d="M55.87,88h-16a2,2,0,0,1-2-2V78a2,2,0,0,1,2-2h16a2,2,0,0,1,2,2v8A2,2,0,0,1,55.87,88Zm-14-4h12V80h-12Z"></path><path d="M49.87,62h-40a2,2,0,0,1-2-2V24a2,2,0,0,1,2-2h40a2,2,0,0,1,2,2V60A2,2,0,0,1,49.87,62Zm-38-4h36V26h-36Z"></path><path d="M85.87,48h-28a2,2,0,0,1-2-2V2a2,2,0,0,1,2-2h28a2,2,0,0,1,2,2V46A2,2,0,0,1,85.87,48Zm-26-4h24V4h-24Z"></path><path d="M85.87,62h-28a2,2,0,0,1-2-2V54a2,2,0,0,1,2-2h28a2,2,0,0,1,2,2v6A2,2,0,0,1,85.87,62Zm-26-4h24V56h-24Z"></path><rect x="63.87" y="22" width="16" height="4"></rect><rect x="69.87" y="16" width="4" height="16"></rect></svg> 