<?xml version="1.0" encoding="UTF-8"?> <svg xmlns="http://www.w3.org/2000/svg" id="Layer_1" data-name="Layer 1" viewBox="0 0 96 96"><rect x="20" y="12" width="54" height="4"></rect><rect x="46" y="84" width="4" height="4"></rect><path d="M72,96H24a6,6,0,0,1-6-6V86h4v4a2,2,0,0,0,2,2H72a2,2,0,0,0,2-2V60h4V90A6,6,0,0,1,72,96Z"></path><path d="M22,46H18V6a6,6,0,0,1,6-6H72a6,6,0,0,1,6,6V20H74V6a2,2,0,0,0-2-2H24a2,2,0,0,0-2,2Z"></path><path d="M26,88H2a2,2,0,0,1-2-2V66a6,6,0,0,1,6-6H22a6,6,0,0,1,6,6V86A2,2,0,0,1,26,88ZM4,84H24V66a2,2,0,0,0-2-2H6a2,2,0,0,0-2,2Z"></path><path d="M14,62A10,10,0,1,1,24,52,10,10,0,0,1,14,62Zm0-16a6,6,0,1,0,6,6A6,6,0,0,0,14,46Z"></path><path d="M36,70H26V66h8V60a2,2,0,0,1,2-2H70v4H38v6A2,2,0,0,1,36,70Z"></path><rect x="12" y="62" width="4" height="10"></rect><path d="M94,62H70a2,2,0,0,1-2-2V40a6,6,0,0,1,6-6H90a6,6,0,0,1,6,6V60A2,2,0,0,1,94,62ZM72,58H92V40a2,2,0,0,0-2-2H74a2,2,0,0,0-2,2Z"></path><path d="M82,36A10,10,0,1,1,92,26,10,10,0,0,1,82,36Zm0-16a6,6,0,1,0,6,6A6,6,0,0,0,82,20Z"></path><rect x="28" y="76" width="46" height="4"></rect><rect x="80" y="36" width="4" height="10"></rect><rect x="34" y="26" width="28" height="4"></rect></svg> 