<?xml version="1.0" encoding="UTF-8"?> <svg xmlns="http://www.w3.org/2000/svg" id="Layer_1" data-name="Layer 1" viewBox="0 0 96 96"><path d="M90,84H6a6,6,0,0,1-6-6V24a6,6,0,0,1,6-6h8v4H6a2,2,0,0,0-2,2V78a2,2,0,0,0,2,2H90a2,2,0,0,0,2-2V24a2,2,0,0,0-2-2H82V18h8a6,6,0,0,1,6,6V78A6,6,0,0,1,90,84Z"></path><path d="M54,96H42a2,2,0,0,1-2-2V82a2,2,0,0,1,2-2H54a2,2,0,0,1,2,2V94A2,2,0,0,1,54,96ZM44,92h8V84H44Z"></path><rect x="36" y="92" width="24" height="4"></rect><rect x="2" y="64" width="92" height="4"></rect><rect x="46" y="72" width="4" height="4"></rect><path d="M48,68a2,2,0,0,1-1.79-1.11L40.76,56H18a6,6,0,0,1-6-6V6a6,6,0,0,1,6-6H78a6,6,0,0,1,6,6V50a6,6,0,0,1-6,6H55.24L49.79,66.89A2,2,0,0,1,48,68ZM18,4a2,2,0,0,0-2,2V50a2,2,0,0,0,2,2H42a2,2,0,0,1,1.79,1.11L48,61.53l4.21-8.42A2,2,0,0,1,54,52H78a2,2,0,0,0,2-2V6a2,2,0,0,0-2-2Z"></path><path d="M24,16H20V10a2,2,0,0,1,2-2h6v4H24Z"></path><path d="M76,16H72V12H68V8h6a2,2,0,0,1,2,2Z"></path><path d="M28,48H22a2,2,0,0,1-2-2V40h4v4h4Z"></path><path d="M74,48H68V44h4V40h4v6A2,2,0,0,1,74,48Z"></path></svg> 