<?xml version="1.0" encoding="UTF-8"?> <svg xmlns="http://www.w3.org/2000/svg" id="Layer_1" data-name="Layer 1" viewBox="0 0 96 96"><path d="M89.77,95.77h-84a6,6,0,0,1-6-6v-84a6,6,0,0,1,6-6h84a6,6,0,0,1,6,6v84A6,6,0,0,1,89.77,95.77Zm-84-92a2,2,0,0,0-2,2v84a2,2,0,0,0,2,2h84a2,2,0,0,0,2-2v-84a2,2,0,0,0-2-2Z"></path><path d="M93.77,23.77h-68a2,2,0,0,1-1.42-.59l-5.41-5.41H8.59L3.18,23.18.35,20.35l6-6a2,2,0,0,1,1.42-.58h12a2,2,0,0,1,1.41.58l5.41,5.42H93.77Z"></path><rect x="83.77" y="9.77" width="4" height="4"></rect><rect x="75.77" y="9.77" width="4" height="4"></rect><path d="M73.77,55.77a14,14,0,1,1,14-14A14,14,0,0,1,73.77,55.77Zm0-24a10,10,0,1,0,10,10A10,10,0,0,0,73.77,31.77Z"></path><rect x="71.77" y="53.77" width="4" height="6"></rect><path d="M75.77,87.77h-4a6,6,0,0,1-6-6v-2h-18v-4h20a2,2,0,0,1,2,2v4a2,2,0,0,0,2,2h4a2,2,0,0,0,2-2v-16a2,2,0,0,0-2-2h-4a2,2,0,0,0-2,2v4a2,2,0,0,1-2,2h-10v-4h8v-2a6,6,0,0,1,6-6h4a6,6,0,0,1,6,6v16A6,6,0,0,1,75.77,87.77Z"></path><path d="M63.77,51.77h-50a6,6,0,0,1-6-6v-8a6,6,0,0,1,6-6h50v4h-50a2,2,0,0,0-2,2v8a2,2,0,0,0,2,2h50Z"></path><rect x="11.77" y="75.77" width="32" height="4"></rect><rect x="11.77" y="67.77" width="42" height="4"></rect><rect x="11.77" y="59.77" width="34" height="4"></rect><rect x="15.77" y="39.77" width="28" height="4"></rect><rect x="47.77" y="39.77" width="8" height="4"></rect></svg> 