<?xml version="1.0" encoding="UTF-8"?> <svg xmlns="http://www.w3.org/2000/svg" id="Layer_1" data-name="Layer 1" viewBox="0 0 96 96"><path d="M3.77,60.36h-4v-36a6,6,0,0,1,6-6h18v4h-18a2,2,0,0,0-2,2Z"></path><path d="M89.77,84.36h-48v-4h48a2,2,0,0,0,2-2v-54a2,2,0,0,0-2-2h-18v-4h18a6,6,0,0,1,6,6v54A6,6,0,0,1,89.77,84.36Z"></path><path d="M53.77,96.36h-12a2,2,0,0,1-2-2v-12a2,2,0,0,1,2-2h12a2,2,0,0,1,2,2v12A2,2,0,0,1,53.77,96.36Zm-10-4h8v-8h-8Z"></path><rect x="35.77" y="92.36" width="24" height="4"></rect><rect x="41.77" y="64.36" width="52" height="4"></rect><path d="M49.77,54.36a1.89,1.89,0,0,1-.7-.13,2,2,0,0,1-1.3-1.87v-12h-20a6,6,0,0,1-6-6v-28a6,6,0,0,1,6-6h40a6,6,0,0,1,6,6v28a6,6,0,0,1-6,6H62.69L51.28,53.66A2,2,0,0,1,49.77,54.36Zm-22-50a2,2,0,0,0-2,2v28a2,2,0,0,0,2,2h22a2,2,0,0,1,2,2V47l8.48-9.89a2,2,0,0,1,1.52-.7h6a2,2,0,0,0,2-2v-28a2,2,0,0,0-2-2Z"></path><path d="M9.77,96.36h-4a2,2,0,0,1-2-2v-18a2,2,0,0,1,2-2h8a2,2,0,0,1,2,2v14A6,6,0,0,1,9.77,96.36Zm-2-4h2a2,2,0,0,0,2-2v-12h-4Z"></path><path d="M21.77,78.36h-14a8,8,0,0,1-8-8v-10a8,8,0,0,1,8-8h14a2,2,0,0,1,2,2v22A2,2,0,0,1,21.77,78.36Zm-14-22a4,4,0,0,0-4,4v10a4,4,0,0,0,4,4h12v-18Z"></path><path d="M41.77,84.36a2.24,2.24,0,0,1-.57-.08l-20-5.89a2,2,0,0,1-1.43-1.92V54.27A2,2,0,0,1,21,52.41l20-8.07a2,2,0,0,1,1.87.2,2,2,0,0,1,.88,1.65V82.36a2,2,0,0,1-2,2ZM23.77,75l16,4.72V49.16l-16,6.46Z"></path><rect x="7.77" y="60.36" width="8" height="4"></rect><path d="M41.77,32.36a2,2,0,0,1-1-.25,2,2,0,0,1-1-1.75v-20a2,2,0,0,1,1-1.75,2,2,0,0,1,2,.05l16,10a2,2,0,0,1,0,3.4l-16,10A2,2,0,0,1,41.77,32.36Zm2-18.39V26.75L54,20.36Z"></path><rect x="83.77" y="56.36" width="4" height="4"></rect><rect x="55.77" y="56.36" width="24" height="4"></rect></svg> 