<?xml version="1.0" encoding="UTF-8"?> <svg xmlns="http://www.w3.org/2000/svg" id="Layer_1" data-name="Layer 1" viewBox="0 0 96 96"><path d="M18,76H10a2,2,0,0,1-2-2V66h4v6h6Z"></path><path d="M12,26H8V18a2,2,0,0,1,2-2h8v4H12Z"></path><path d="M36,46H30a2,2,0,0,0-2,2V58a2,2,0,0,0,2,2h6a2,2,0,0,0,2-2V48A2,2,0,0,0,36,46ZM34,56H32V50h2Z"></path><rect x="28" y="38" width="10" height="4"></rect><path d="M93.62,82.13,84,72.51V6a6,6,0,0,0-6-6H6A6,6,0,0,0,0,6V78a6,6,0,0,0,6,6H72.51l9.62,9.62A8.12,8.12,0,0,0,93.62,82.13ZM6,80a2,2,0,0,1-2-2V12H68V8H4V6A2,2,0,0,1,6,4H78a2,2,0,0,1,2,2V68.51l-5.15-5.16a2,2,0,0,0-2.83,0l-1.48,1.48,0,0-3.15-3.14a28.62,28.62,0,1,0-5.71,5.71l3.14,3.14,0,0L63.36,72a2,2,0,0,0,0,2.83L68.51,80ZM61.91,61.91A24.55,24.55,0,1,1,69.1,44.55,24.38,24.38,0,0,1,61.91,61.91ZM67.6,73.43l5.83-5.83,2.08,2.07L69.67,75.5Zm4.9,4.9,5.83-5.83,11,11-5.84,5.84ZM90.79,90.79a4.19,4.19,0,0,1-4,1l5.06-5A4.11,4.11,0,0,1,90.79,90.79Z"></path><rect x="72" y="8" width="4" height="4"></rect><path d="M48,36H42a2,2,0,0,0-2,2V58a2,2,0,0,0,2,2h6a2,2,0,0,0,2-2V38A2,2,0,0,0,48,36ZM46,56H44V40h2Z"></path><path d="M60,30H54a2,2,0,0,0-2,2V58a2,2,0,0,0,2,2h6a2,2,0,0,0,2-2V32A2,2,0,0,0,60,30ZM58,56H56V44h2Zm0-16H56V34h2Z"></path><rect x="40" y="28" width="10" height="4"></rect></svg> 