<?xml version="1.0" encoding="UTF-8"?> <svg xmlns="http://www.w3.org/2000/svg" id="Layer_1" data-name="Layer 1" viewBox="0 0 96 96"><path d="M48,66A18,18,0,1,1,66,48,18,18,0,0,1,48,66Zm0-32A14,14,0,1,0,62,48,14,14,0,0,0,48,34Z"></path><path d="M78,58H62V54H78a14,14,0,0,0,0-28h-.2a2,2,0,0,1-2-2.4A7.92,7.92,0,0,0,76,22a8,8,0,0,0-8-8,9,9,0,0,1-1-.06,1,1,0,0,0-.5,0,2,2,0,0,1-2.25-1c-3-5.45-9.39-9-16.25-9A18,18,0,0,0,30,21.91a2,2,0,0,1-.95,1.69,2,2,0,0,1-1.94.09A15.79,15.79,0,0,0,20,22a16,16,0,0,0,0,32H34v4H20a20,20,0,0,1,0-40,19.46,19.46,0,0,1,6.21,1A22.05,22.05,0,0,1,48,0c7.83,0,15.18,3.86,19.09,9.93l.35,0A4.32,4.32,0,0,0,68,10,12,12,0,0,1,80,22v.11A18,18,0,0,1,78,58Z"></path><rect x="46" y="64" width="4" height="18"></rect><path d="M90,82H86V74H10v8H6V72a2,2,0,0,1,2-2H88a2,2,0,0,1,2,2Z"></path><path d="M8,96a8,8,0,1,1,8-8A8,8,0,0,1,8,96ZM8,84a4,4,0,1,0,4,4A4,4,0,0,0,8,84Z"></path><path d="M48,96a8,8,0,1,1,8-8A8,8,0,0,1,48,96Zm0-12a4,4,0,1,0,4,4A4,4,0,0,0,48,84Z"></path><path d="M88,96a8,8,0,1,1,8-8A8,8,0,0,1,88,96Zm0-12a4,4,0,1,0,4,4A4,4,0,0,0,88,84Z"></path><path d="M18,48a10,10,0,0,1,0-20v4a6,6,0,0,0,0,12Z"></path><path d="M78,50V46a6,6,0,0,0,0-12V30a10,10,0,0,1,0,20Z"></path><path d="M60,20H56a8,8,0,0,0-16,0H36a12,12,0,0,1,24,0Z"></path><path d="M52.59,55.41l-6-6A2,2,0,0,1,46,48V38h4v9.17l5.41,5.42Z"></path></svg> 