<?xml version="1.0" encoding="UTF-8"?> <svg xmlns="http://www.w3.org/2000/svg" id="Layer_1" data-name="Layer 1" viewBox="0 0 96 96"><path d="M56,96H40a2,2,0,0,1-2-2V82a2,2,0,0,1,2-2H56a2,2,0,0,1,2,2V94A2,2,0,0,1,56,96ZM42,92H54V84H42Z"></path><rect x="30" y="92" width="36" height="4"></rect><rect x="2" y="64" width="92" height="4"></rect><rect x="46" y="72" width="4" height="4"></rect><path d="M4,32H0V22a6,6,0,0,1,6-6H36v4H6a2,2,0,0,0-2,2Z"></path><path d="M90,84H6a6,6,0,0,1-6-6V52H4V78a2,2,0,0,0,2,2H90a2,2,0,0,0,2-2V52h4V78A6,6,0,0,1,90,84Z"></path><path d="M96,34H92V22a2,2,0,0,0-2-2H58V16H90a6,6,0,0,1,6,6Z"></path><path d="M54.59,11.41,48,4.83l-6.59,6.58L38.59,8.59l8-8a2,2,0,0,1,2.82,0l8,8Z"></path><rect x="46" y="4" width="4" height="62"></rect><path d="M42,66H38V46a2,2,0,0,0-2-2H2V40H36a6,6,0,0,1,6,6Z"></path><path d="M87.41,51.41l-2.82-2.82L91.17,42l-6.58-6.59,2.82-2.82,8,8a2,2,0,0,1,0,2.82Z"></path><path d="M58,66H54V46a6,6,0,0,1,6-6H94v4H60a2,2,0,0,0-2,2Z"></path><path d="M8.59,51.41l-8-8a2,2,0,0,1,0-2.82l8-8,2.82,2.82L4.83,42l6.58,6.59Z"></path></svg> 